<?xml version="1.0" encoding="UTF-8" standalone="no"?><!DOCTYPE svg PUBLIC "-//W3C//DTD SVG 1.1//EN" "http://www.w3.org/Graphics/SVG/1.1/DTD/svg11.dtd"><svg width="100%" height="100%" viewBox="0 0 900 320" version="1.1" xmlns="http://www.w3.org/2000/svg" xmlns:xlink="http://www.w3.org/1999/xlink" xml:space="preserve" xmlns:serif="http://www.serif.com/" style="fill-rule:evenodd;clip-rule:evenodd;"><path d="M900,12l0,296c0,6.623 -5.377,12 -12,12l-876,0c-6.623,0 -12,-5.377 -12,-12l0,-296c0,-6.623 5.377,-12 12,-12l876,0c6.623,0 12,5.377 12,12Z" style="fill:url(#_Linear1);"/><text x="280.971px" y="24px" style="font-family:'Arial-BoldMT', 'Arial', sans-serif;font-weight:700;font-size:14px;fill:#e2e8f0;">Lien entre chaîne d&apos;information et chaîne d&apos;énergie</text><path d="M210,50l0,44c0,4.415 -3.585,8 -8,8l-139,0c-4.415,0 -8,-3.585 -8,-8l0,-44c0,-4.415 3.585,-8 8,-8l139,0c4.415,0 8,3.585 8,8Z" style="fill:url(#_Linear2);stroke:#3b82f6;stroke-width:1.2px;"/><text x="106.638px" y="65px" style="font-family:'Arial-BoldMT', 'Arial', sans-serif;font-weight:700;font-size:11px;fill:#93c5fd;">ACQÉRIR</text><text x="111.712px" y="80px" style="font-family:'ArialMT', 'Arial', sans-serif;font-size:10px;fill:#cbd5e1;">Capteurs</text><path d="M215,72l20,0" style="fill:none;fill-rule:nonzero;stroke:#64748b;stroke-width:2px;"/><path d="M395,50l0,44c0,4.415 -3.585,8 -8,8l-139,0c-4.415,0 -8,-3.585 -8,-8l0,-44c0,-4.415 3.585,-8 8,-8l139,0c4.415,0 8,3.585 8,8Z" style="fill:url(#_Linear3);stroke:#3b82f6;stroke-width:1.2px;"/><text x="293.168px" y="65px" style="font-family:'Arial-BoldMT', 'Arial', sans-serif;font-weight:700;font-size:11px;fill:#93c5fd;">TRAITER</text><text x="282.544px" y="80px" style="font-family:'ArialMT', 'Arial', sans-serif;font-size:10px;fill:#cbd5e1;">Microcontrôleur</text><path d="M400,72l20,0" style="fill:none;fill-rule:nonzero;stroke:#64748b;stroke-width:2px;"/><path d="M580,50l0,44c0,4.415 -3.585,8 -8,8l-139,0c-4.415,0 -8,-3.585 -8,-8l0,-44c0,-4.415 3.585,-8 8,-8l139,0c4.415,0 8,3.585 8,8Z" style="fill:url(#_Linear4);stroke:#3b82f6;stroke-width:1.2px;"/><text x="459.225px" y="65px" style="font-family:'Arial-BoldMT', 'Arial', sans-serif;font-weight:700;font-size:11px;fill:#93c5fd;">COMMUNIQUER</text><text x="477.549px" y="80px" style="font-family:'ArialMT', 'Arial', sans-serif;font-size:10px;fill:#cbd5e1;">IHM, écran</text><path d="M317,107l0,48" style="fill:none;fill-rule:nonzero;stroke:#818cf8;stroke-width:2px;stroke-dasharray:6,3;"/><text x="350px" y="138px" style="font-family:'Arial-BoldMT', 'Arial', sans-serif;font-weight:700;font-size:10px;fill:#818cf8;">COMMANDER</text><path d="M210,173l0,44c0,4.415 -3.585,8 -8,8l-139,0c-4.415,0 -8,-3.585 -8,-8l0,-44c0,-4.415 3.585,-8 8,-8l139,0c4.415,0 8,3.585 8,8Z" style="fill:url(#_Linear5);stroke:#f59e0b;stroke-width:1.2px;"/><text x="99.918px" y="188px" style="font-family:'Arial-BoldMT', 'Arial', sans-serif;font-weight:700;font-size:11px;fill:#fbbf24;">ALIMENTER</text><text x="94.354px" y="205px" style="font-family:'ArialMT', 'Arial', sans-serif;font-size:10px;fill:#d4a574;">Source d&apos;énergie</text><path d="M215,195l20,0" style="fill:none;fill-rule:nonzero;stroke:#64748b;stroke-width:2px;"/><path d="M395,173l0,44c0,4.415 -3.585,8 -8,8l-139,0c-4.415,0 -8,-3.585 -8,-8l0,-44c0,-4.415 3.585,-8 8,-8l139,0c4.415,0 8,3.585 8,8Z" style="fill:url(#_Linear6);stroke:#f59e0b;stroke-width:1.2px;"/><text x="283.388px" y="188px" style="font-family:'Arial-BoldMT', 'Arial', sans-serif;font-weight:700;font-size:11px;fill:#fbbf24;">DISTRIBUER</text><text x="276.702px" y="205px" style="font-family:'ArialMT', 'Arial', sans-serif;font-size:10px;fill:#d4a574;">Interrupteur<tspan x="327.845px 330.623px " y="205px 205px ">, </tspan>relais</text><path d="M400,195l20,0" style="fill:none;fill-rule:nonzero;stroke:#64748b;stroke-width:2px;"/><path d="M580,173l0,44c0,4.415 -3.585,8 -8,8l-139,0c-4.415,0 -8,-3.585 -8,-8l0,-44c0,-4.415 3.585,-8 8,-8l139,0c4.415,0 8,3.585 8,8Z" style="fill:url(#_Linear7);stroke:#f59e0b;stroke-width:1.2px;"/><text x="469.61px" y="188px" style="font-family:'Arial-BoldMT', 'Arial', sans-serif;font-weight:700;font-size:11px;fill:#fbbf24;">CONVERTIR</text><text x="470.042px" y="205px" style="font-family:'ArialMT', 'Arial', sans-serif;font-size:10px;fill:#d4a574;">Moteur<tspan x="500.613px 503.392px " y="205px 205px ">, </tspan>LED...</text><path d="M585,195l20,0" style="fill:none;fill-rule:nonzero;stroke:#64748b;stroke-width:2px;"/><path d="M765,173l0,44c0,4.415 -3.585,8 -8,8l-139,0c-4.415,0 -8,-3.585 -8,-8l0,-44c0,-4.415 3.585,-8 8,-8l139,0c4.415,0 8,3.585 8,8Z" style="fill:url(#_Linear8);stroke:#f59e0b;stroke-width:1.2px;"/><text x="645.447px" y="188px" style="font-family:'Arial-BoldMT', 'Arial', sans-serif;font-weight:700;font-size:11px;fill:#fbbf24;">TRANSMETTRE</text><text x="647.249px" y="205px" style="font-family:'ArialMT', 'Arial', sans-serif;font-size:10px;fill:#d4a574;">Engrenages, roue</text><path d="M770,195l20,0" style="fill:none;fill-rule:nonzero;stroke:#64748b;stroke-width:2px;"/><path d="M885,173l0,44c0,4.415 -3.585,8 -8,8l-74,0c-4.415,0 -8,-3.585 -8,-8l0,-44c0,-4.415 3.585,-8 8,-8l74,0c4.415,0 8,3.585 8,8Z" style="fill:url(#_Linear9);"/><text x="817.002px" y="198px" style="font-family:'Arial-BoldMT', 'Arial', sans-serif;font-weight:700;font-size:12px;fill:#fff;">ACTION</text><path d="M67,257l0,8c0,1.104 -0.896,2 -2,2l-8,0c-1.104,0 -2,-0.896 -2,-2l0,-8c0,-1.104 0.896,-2 2,-2l8,0c1.104,0 2,0.896 2,2Z" style="fill:#3b82f6;"/><text x="75px" y="266px" style="font-family:'ArialMT', 'Arial', sans-serif;font-size:10px;fill:#93c5fd;">Chaîne d&apos;information</text><path d="M232,257l0,8c0,1.104 -0.896,2 -2,2l-8,0c-1.104,0 -2,-0.896 -2,-2l0,-8c0,-1.104 0.896,-2 2,-2l8,0c1.104,0 2,0.896 2,2Z" style="fill:#f59e0b;"/><text x="240px" y="266px" style="font-family:'ArialMT', 'Arial', sans-serif;font-size:10px;fill:#fbbf24;">Chaîne d&apos;énergie</text><path d="M400,261l30,0" style="fill:none;fill-rule:nonzero;stroke:#818cf8;stroke-width:2px;stroke-dasharray:6,3;"/><text x="440px" y="266px" style="font-family:'ArialMT', 'Arial', sans-serif;font-size:10px;fill:#818cf8;">Ordre de commande</text><text x="257.132px" y="300px" style="font-family:'Arial-ItalicMT', 'Arial', sans-serif;font-style:italic;font-size:11px;fill:#94a3b8;">La chaîne d&apos;information pilote la chaîne d&apos;énergie via la fonction COMMANDER</text><path d="M316.86,165l5.962,-10.235l-11.924,0l5.962,10.235Z" style="fill:#818cf8;"/><defs><linearGradient id="_Linear1" x1="0" y1="0" x2="1" y2="0" gradientUnits="userSpaceOnUse" gradientTransform="matrix(0,320,-320,0,0,0)"><stop offset="0" style="stop-color:#1e293b;stop-opacity:1"/><stop offset="1" style="stop-color:#0f172a;stop-opacity:1"/></linearGradient><linearGradient id="_Linear2" x1="0" y1="0" x2="1" y2="0" gradientUnits="userSpaceOnUse" gradientTransform="matrix(0,60,-60,0,55,42)"><stop offset="0" style="stop-color:#1e3a5f;stop-opacity:1"/><stop offset="1" style="stop-color:#172554;stop-opacity:1"/></linearGradient><linearGradient id="_Linear3" x1="0" y1="0" x2="1" y2="0" gradientUnits="userSpaceOnUse" gradientTransform="matrix(0,60,-60,0,240,42)"><stop offset="0" style="stop-color:#1e3a5f;stop-opacity:1"/><stop offset="1" style="stop-color:#172554;stop-opacity:1"/></linearGradient><linearGradient id="_Linear4" x1="0" y1="0" x2="1" y2="0" gradientUnits="userSpaceOnUse" gradientTransform="matrix(0,60,-60,0,425,42)"><stop offset="0" style="stop-color:#1e3a5f;stop-opacity:1"/><stop offset="1" style="stop-color:#172554;stop-opacity:1"/></linearGradient><linearGradient id="_Linear5" x1="0" y1="0" x2="1" y2="0" gradientUnits="userSpaceOnUse" gradientTransform="matrix(0,60,-60,0,55,165)"><stop offset="0" style="stop-color:#3f2a1e;stop-opacity:1"/><stop offset="1" style="stop-color:#2d1f14;stop-opacity:1"/></linearGradient><linearGradient id="_Linear6" x1="0" y1="0" x2="1" y2="0" gradientUnits="userSpaceOnUse" gradientTransform="matrix(0,60,-60,0,240,165)"><stop offset="0" style="stop-color:#3f2a1e;stop-opacity:1"/><stop offset="1" style="stop-color:#2d1f14;stop-opacity:1"/></linearGradient><linearGradient id="_Linear7" x1="0" y1="0" x2="1" y2="0" gradientUnits="userSpaceOnUse" gradientTransform="matrix(0,60,-60,0,425,165)"><stop offset="0" style="stop-color:#3f2a1e;stop-opacity:1"/><stop offset="1" style="stop-color:#2d1f14;stop-opacity:1"/></linearGradient><linearGradient id="_Linear8" x1="0" y1="0" x2="1" y2="0" gradientUnits="userSpaceOnUse" gradientTransform="matrix(0,60,-60,0,610,165)"><stop offset="0" style="stop-color:#3f2a1e;stop-opacity:1"/><stop offset="1" style="stop-color:#2d1f14;stop-opacity:1"/></linearGradient><linearGradient id="_Linear9" x1="0" y1="0" x2="1" y2="0" gradientUnits="userSpaceOnUse" gradientTransform="matrix(0,60,-60,0,795,165)"><stop offset="0" style="stop-color:#2563eb;stop-opacity:1"/><stop offset="1" style="stop-color:#1d4ed8;stop-opacity:1"/></linearGradient></defs></svg>